<svg version="1.1"
      xmlns="http://www.w3.org/2000/svg"
      xmlns:xlink="http://www.w3.org/1999/xlink"  id="snapshot-03702" width="250" height="250" viewBox="0 0 250 250"><desc>This image was made on Patterninja.com</desc><defs>
<!-- image 45681 -->
<g id="transformed-45681" data-image="45681" transform="translate(125, 56) rotate(0, 60, 60)"><g><svg version="1.1" width="120px" height="120px" viewBox="0 0 120 120"><g id="original-45681"><svg xmlns="http://www.w3.org/2000/svg" viewBox="0 0 73 73" xmlns:xlink="http://www.w3.org/1999/xlink" version="1.1" preserveAspectRatio="xMidYMid meet">
  <path fill-rule="evenodd" d="M54.454 47.383L71.142 64.07a4 4 0 0 1 0 5.657l-1.414 1.414a4 4 0 0 1-5.657 0L47.383 54.454A29.863 29.863 0 0 1 30 60C13.431 60 0 46.569 0 30 0 13.431 13.431 0 30 0c16.569 0 30 13.431 30 30 0 6.48-2.054 12.479-5.546 17.383z" fill="rgba(0, 0, 0, 1)" stroke="none"/>
  <circle cx="30" cy="30" r="22" fill-rule="evenodd" fill="rgba(141, 221, 255, 1)" stroke="none"/>
</svg>
</g></svg></g></g>
<!-- /image 45681 -->

<!-- image 93877 -->
<g id="transformed-93877" data-image="93877" transform="translate(3, 105) rotate(0, 75, 71)"><g><svg version="1.1" width="150px" height="142px" viewBox="0 0 150 142"><g id="original-93877"><svg xmlns="http://www.w3.org/2000/svg" viewBox="0 0 66 63" xmlns:xlink="http://www.w3.org/1999/xlink" version="1.1" preserveAspectRatio="xMidYMid meet">
  <path fill-rule="evenodd" d="M60 63H6a6 6 0 0 1-6-6c0-22.091 15-28 33-28s33 5.909 33 28a6 6 0 0 1-6 6z" fill="rgba(182, 68, 68, 1)" stroke="none"/>
  <path fill-rule="evenodd" d="M19 31l15 6-6 9z" fill="rgba(255, 255, 255, 1)" stroke="none"/>
  <path fill-rule="evenodd" d="M48 31l-15 6 6 9z" fill="rgba(255, 255, 255, 1)" stroke="none"/>
  <circle cx="33" cy="19" r="18" fill-rule="evenodd" fill="rgba(242, 205, 174, 1)" stroke="none"/>
  <path fill-rule="evenodd" d="M51.96 19.785A30.636 30.636 0 0 1 48.5 20c-9.794 0-18.109-4.594-21.2-11h-.628a18.955 18.955 0 0 1-7 6.692 21.2 21.2 0 0 1-5.625 2.27A18.984 18.984 0 0 1 26.952 1h.094c.93-.311 1.883-.554 2.849-.725l.184-.028c.412-.067.828-.121 1.249-.163A19.254 19.254 0 0 1 33 0a19.009 19.009 0 0 1 18.614 15.171A19.09 19.09 0 0 1 52 19c0 .265-.029.523-.04.785z" fill="rgba(171, 97, 37, 1)" stroke="none"/>
</svg>
</g></svg></g></g>
<!-- /image 93877 -->
</defs><rect x="0" y="0" width="250" height="250" fill="rgba(82, 163, 253, 0.8604651162790697)"></rect><use xlink:href="#transformed-45681" transform="translate(-250, -250)"></use><use xlink:href="#transformed-45681" transform="translate(0, -250)"></use><use xlink:href="#transformed-45681" transform="translate(250, -250)"></use><use xlink:href="#transformed-45681" transform="translate(-250, 0)"></use><use xlink:href="#transformed-45681" transform="translate(0, 0)"></use><use xlink:href="#transformed-45681" transform="translate(250, 0)"></use><use xlink:href="#transformed-45681" transform="translate(-250, 250)"></use><use xlink:href="#transformed-45681" transform="translate(0, 250)"></use><use xlink:href="#transformed-45681" transform="translate(250, 250)"></use><use xlink:href="#transformed-93877" transform="translate(-250, -250)"></use><use xlink:href="#transformed-93877" transform="translate(0, -250)"></use><use xlink:href="#transformed-93877" transform="translate(250, -250)"></use><use xlink:href="#transformed-93877" transform="translate(-250, 0)"></use><use xlink:href="#transformed-93877" transform="translate(0, 0)"></use><use xlink:href="#transformed-93877" transform="translate(250, 0)"></use><use xlink:href="#transformed-93877" transform="translate(-250, 250)"></use><use xlink:href="#transformed-93877" transform="translate(0, 250)"></use><use xlink:href="#transformed-93877" transform="translate(250, 250)"></use></svg>